<?xml version="1.0" standalone="no"?>
<!DOCTYPE svg PUBLIC "-//W3C//DTD SVG 20010904//EN"
 "http://www.w3.org/TR/2001/REC-SVG-20010904/DTD/svg10.dtd">
<svg version="1.0" xmlns="http://www.w3.org/2000/svg"
 width="231.000000pt" height="231.000000pt" viewBox="0 0 231.000000 231.000000"
 preserveAspectRatio="xMidYMid meet">
<metadata>
Created by potrace 1.14, written by Peter Selinger 2001-2017
</metadata>
<g transform="translate(0.000000,231.000000) scale(0.100000,-0.100000)"
fill="#000000" stroke="none">
<path d="M590 1677 c0 -2 -83 -230 -185 -507 -102 -277 -185 -505 -185 -507 0
-2 59 -2 132 -1 l131 3 29 93 29 92 169 0 169 0 29 -92 28 -93 132 -3 c73 -1
132 0 132 3 0 3 -79 220 -176 483 -97 262 -181 489 -186 505 l-10 27 -119 0
c-65 0 -119 -1 -119 -3z m174 -454 c26 -87 50 -164 53 -170 4 -10 -22 -13
-107 -13 -86 0 -111 3 -107 13 2 6 26 83 52 170 27 86 51 157 54 157 4 0 28
-71 55 -157z"/>
<path d="M1150 1673 c0 -4 75 -234 167 -510 l168 -503 136 0 136 0 171 510
171 510 -138 0 -137 0 -100 -364 c-54 -201 -102 -362 -105 -358 -3 4 -45 151
-92 327 -48 176 -92 337 -97 358 l-11 37 -134 0 c-74 0 -135 -3 -135 -7z"/>
</g>
</svg>
